<svg xmlns="http://www.w3.org/2000/svg" viewBox="0 0 32 32" role="img" aria-label="TSP">
  <defs>
    <linearGradient id="sky" x1="0%" y1="0%" x2="100%" y2="100%">
      <stop offset="0%" stop-color="#fcd34d" />
      <stop offset="45%" stop-color="#fb923c" />
      <stop offset="100%" stop-color="#f472b6" />
    </linearGradient>
    <linearGradient id="ocean" x1="0%" y1="0%" x2="0%" y2="100%">
      <stop offset="0%" stop-color="#22d3ee" />
      <stop offset="55%" stop-color="#0891b2" />
      <stop offset="100%" stop-color="#0e4f6a" />
    </linearGradient>
    <linearGradient id="wave" x1="0%" y1="0%" x2="100%" y2="0%">
      <stop offset="0%" stop-color="#e0f2fe" />
      <stop offset="100%" stop-color="#7dd3fc" />
    </linearGradient>
  </defs>
  <!-- 四隅まで塗りつぶし（余白・透明なし） -->
  <rect width="32" height="32" fill="#0c4a6e" />
  <rect width="32" height="14" fill="url(#sky)" />
  <circle cx="24" cy="8" r="3.5" fill="#fef9c3" />
  <rect y="13" width="32" height="19" fill="url(#ocean)" />
  <path
    fill="url(#wave)"
    d="M0 13.5c5.3-1.5 10.7-2.2 16-1.5 5.3.7 10.7 2.2 16 3v3c-5.3-1-10.7-1.5-16-1-5.3.5-10.7 1.5-16 2.5v-5.5Z"
  />
  <path
    fill="none"
    stroke="#ecfeff"
    stroke-width="0.85"
    stroke-linecap="round"
    opacity="0.75"
    d="M1 19.5c6-1.2 12-1.4 15-.6 3 .8 9 1.8 15 1.2"
  />
  <path
    fill="#115e59"
    d="M5.5 13.2c.6-2.4 2.2-4.2 3-3.8.5 2.4-.3 4.6-1.2 6.2-.4-1.1-.6-1.8-1-2.4Z"
  />
  <path
    fill="none"
    stroke="#0d9488"
    stroke-width="0.75"
    stroke-linecap="round"
    d="M5.8 9.5c1.4 1 2.3 2.2 2.7 3.5M5 10.8c1.2.6 2.1 1.4 2.6 2.5M6.5 11c-1 .7-1.8 1.6-2.2 2.6"
  />
</svg>
