<svg xmlns="http://www.w3.org/2000/svg" viewBox="0 0 32 32" role="img" aria-label="TSP">
  <defs>
    <linearGradient id="sky" x1="0%" y1="0%" x2="100%" y2="100%">
      <stop offset="0%" stop-color="#fcd34d" />
      <stop offset="45%" stop-color="#fb923c" />
      <stop offset="100%" stop-color="#f472b6" />
    </linearGradient>
    <linearGradient id="ocean" x1="0%" y1="0%" x2="0%" y2="100%">
      <stop offset="0%" stop-color="#22d3ee" />
      <stop offset="55%" stop-color="#0891b2" />
      <stop offset="100%" stop-color="#0e4f6a" />
    </linearGradient>
    <linearGradient id="wave" x1="0%" y1="0%" x2="100%" y2="0%">
      <stop offset="0%" stop-color="#e0f2fe" stop-opacity="0.95" />
      <stop offset="100%" stop-color="#bae6fd" stop-opacity="0.85" />
    </linearGradient>
  </defs>
  <rect width="32" height="32" rx="7" fill="#0c4a6e" />
  <!-- California sunset sky -->
  <path fill="url(#sky)" d="M4 4h24a4 4 0 0 1 4 4v6c-8 2-16 2-24 0V8a4 4 0 0 1 4-4Z" opacity="0.95" />
  <circle cx="23" cy="9" r="3.2" fill="#fef3c7" opacity="0.95" />
  <!-- Pacific ocean -->
  <path fill="url(#ocean)" d="M0 14h32v18H0z" />
  <!-- Waves -->
  <path
    fill="url(#wave)"
    d="M0 15.5c4-1.2 8-1.8 12-1.5s8 1.2 12 2.5v2.5c-4-.8-8-1.2-12-1s-8 1-12 2V15.5Z"
  />
  <path
    fill="none"
    stroke="#e0f2fe"
    stroke-width="0.9"
    stroke-linecap="round"
    opacity="0.7"
    d="M2 20.5c5-1 10-1.2 14-.5s6 1.5 14 1"
  />
  <!-- Minimal palm (California coast) -->
  <path
    fill="#134e4a"
    d="M7 13.5c.5-2.2 1.8-3.8 2.5-3.5.4 2.2-.2 4.2-1 5.8-.3-1-.5-1.6-.8-2.3Z"
    opacity="0.85"
  />
  <path
    fill="none"
    stroke="#0f766e"
    stroke-width="0.7"
    stroke-linecap="round"
    d="M7.2 10.2c1.2.8 2 1.8 2.3 3M6.5 11c1 .5 1.8 1.2 2.2 2M8 11.2c-.8.6-1.5 1.4-1.8 2.2"
    opacity="0.9"
  />
</svg>
